<?xml version="1.0" encoding="utf-8"?>
<!-- Generator: Adobe Illustrator 28.0.0, SVG Export Plug-In . SVG Version: 6.00 Build 0)  -->
<svg version="1.1" id="Camada_1" xmlns="http://www.w3.org/2000/svg" xmlns:xlink="http://www.w3.org/1999/xlink" x="0px" y="0px"
	 viewBox="0 0 298.8 92.5" style="enable-background:new 0 0 298.8 92.5;" xml:space="preserve">
<style type="text/css">
	.st0{fill:#FFFFFF;}
	.st1{fill:#08295E;}
</style>
<rect x="0" y="0" class="st0" width="298.8" height="92.5"/>
<g>
	<g>
		<g>
			<g>
				<path class="st1" d="M65.9,44.5c-0.1-7.2,5.9-10.8,6.2-10.9c-3.4-5-8.7-5.6-10.5-5.7c-4.4-0.5-8.7,2.6-10.9,2.6
					c-2.3,0-5.8-2.6-9.5-2.5c-4.8,0.1-9.3,2.9-11.8,7.2C24.3,44,28.1,57,33,64.1c2.4,3.5,5.3,7.4,9,7.2c3.6-0.2,5-2.3,9.4-2.3
					c4.4,0,5.6,2.3,9.4,2.2c3.9-0.1,6.4-3.5,8.7-7c2.8-4,3.9-7.9,4-8.1C73.5,56.1,65.9,53.2,65.9,44.5"/>
			</g>
			<g>
				<path class="st1" d="M58.7,23.3c2-2.5,3.3-5.8,2.9-9.2c-2.8,0.1-6.4,2-8.4,4.4c-1.8,2.1-3.4,5.6-3,8.8
					C53.4,27.5,56.7,25.7,58.7,23.3"/>
			</g>
		</g>
		<g>
			<g>
				<path class="st1" d="M118.6,70.8h-5.1l-2.8-8.8H101l-2.7,8.8h-4.9L103,41h5.9L118.6,70.8z M109.9,58.3l-2.5-7.8
					c-0.3-0.8-0.8-2.7-1.5-5.6h-0.1c-0.3,1.3-0.8,3.1-1.4,5.6l-2.5,7.8H109.9z"/>
			</g>
			<g>
				<path class="st1" d="M143.2,59.8c0,3.7-1,6.5-3,8.7c-1.8,1.9-4,2.8-6.6,2.8c-2.8,0-4.9-1-6.1-3.1h-0.1v11.3h-4.8V56.4
					c0-2.3-0.1-4.7-0.2-7.1h4.2l0.3,3.4h0.1c1.6-2.6,4-3.8,7.2-3.8c2.5,0,4.6,1,6.3,3C142.4,53.9,143.2,56.5,143.2,59.8 M138.4,59.9
					c0-2.1-0.5-3.8-1.4-5.2c-1-1.4-2.4-2.1-4.1-2.1c-1.2,0-2.2,0.4-3.2,1.2c-1,0.8-1.6,1.8-1.9,3.1c-0.2,0.6-0.2,1.1-0.2,1.5v3.6
					c0,1.6,0.5,2.9,1.4,3.9c1,1.1,2.2,1.6,3.7,1.6c1.8,0,3.2-0.7,4.2-2.1C137.9,64,138.4,62.2,138.4,59.9"/>
			</g>
			<g>
				<path class="st1" d="M167.9,59.8c0,3.7-1,6.5-3,8.7c-1.8,1.9-4,2.8-6.6,2.8c-2.8,0-4.9-1-6.1-3.1h-0.1v11.3h-4.8V56.4
					c0-2.3-0.1-4.7-0.2-7.1h4.2l0.3,3.4h0.1c1.6-2.6,4-3.8,7.2-3.8c2.5,0,4.6,1,6.3,3C167,53.9,167.9,56.5,167.9,59.8 M163,59.9
					c0-2.1-0.5-3.8-1.4-5.2c-1-1.4-2.4-2.1-4.1-2.1c-1.2,0-2.2,0.4-3.2,1.2c-1,0.8-1.6,1.8-1.9,3.1c-0.1,0.6-0.2,1.1-0.2,1.5v3.6
					c0,1.6,0.5,2.9,1.4,3.9c1,1.1,2.2,1.6,3.7,1.6c1.8,0,3.2-0.7,4.2-2.1C162.5,64,163,62.2,163,59.9"/>
			</g>
			<g>
				<path class="st1" d="M195.5,62.4c0,2.5-0.9,4.6-2.6,6.2c-1.9,1.7-4.6,2.6-8.1,2.6c-3.2,0-5.8-0.6-7.7-1.8l1.1-4
					c2.1,1.3,4.4,1.9,6.9,1.9c1.8,0,3.2-0.4,4.2-1.2s1.5-1.9,1.5-3.2c0-1.2-0.4-2.2-1.2-3c-0.8-0.8-2.2-1.6-4.1-2.3
					c-5.2-2-7.8-4.8-7.8-8.5c0-2.5,0.9-4.5,2.7-6c1.8-1.6,4.2-2.3,7.3-2.3c2.7,0,5,0.5,6.8,1.4l-1.2,3.9c-1.7-0.9-3.6-1.4-5.7-1.4
					c-1.7,0-3,0.4-3.9,1.2c-0.8,0.7-1.2,1.6-1.2,2.7c0,1.2,0.4,2.2,1.4,2.9c0.8,0.7,2.2,1.5,4.3,2.3c2.6,1,4.4,2.2,5.6,3.6
					C194.9,58.6,195.5,60.3,195.5,62.4"/>
			</g>
			<g>
				<path class="st1" d="M211.3,52.9H206v10.4c0,2.7,0.9,4,2.8,4c0.9,0,1.6-0.1,2.1-0.2l0.1,3.6c-0.9,0.3-2.2,0.5-3.7,0.5
					c-1.9,0-3.4-0.6-4.4-1.7s-1.6-3.1-1.6-5.8V52.9h-3.1v-3.6h3.1v-3.9l4.7-1.4v5.3h5.3L211.3,52.9L211.3,52.9z"/>
			</g>
			<g>
				<path class="st1" d="M235,59.8c0,3.3-0.9,6-2.8,8.1c-2,2.2-4.6,3.3-7.9,3.3c-3.1,0-5.7-1-7.5-3.1c-1.9-2.1-2.8-4.7-2.8-7.9
					c0-3.3,1-6,2.9-8.2c1.9-2.1,4.5-3.2,7.8-3.2c3.1,0,5.7,1,7.6,3.1C234.1,54,235,56.6,235,59.8 M230,60c0-2-0.4-3.7-1.3-5.1
					c-1-1.7-2.4-2.6-4.3-2.6c-1.9,0-3.4,0.9-4.4,2.6c-0.9,1.4-1.3,3.1-1.3,5.2c0,2,0.4,3.7,1.3,5.1c1,1.7,2.5,2.6,4.3,2.6
					c1.8,0,3.2-0.9,4.3-2.6C229.6,63.7,230,62,230,60"/>
			</g>
			<g>
				<path class="st1" d="M250.5,53.5c-0.5-0.1-1-0.1-1.5-0.1c-1.7,0-3,0.6-3.9,1.9c-0.8,1.1-1.2,2.5-1.2,4.2v11.3h-4.8l0-14.7
					c0-2.5-0.1-4.7-0.2-6.8h4.1l0.2,4.1h0.1c0.5-1.4,1.3-2.5,2.4-3.4c1.1-0.8,2.2-1.2,3.4-1.2c0.4,0,0.8,0,1.2,0.1L250.5,53.5
					L250.5,53.5z"/>
			</g>
			<g>
				<path class="st1" d="M271.8,59c0,0.9-0.1,1.6-0.2,2.2h-14.3c0,2.1,0.8,3.7,2.1,4.9c1.2,1,2.8,1.5,4.7,1.5c2.1,0,4-0.3,5.8-1
					l0.8,3.3c-2,0.9-4.4,1.3-7.2,1.3c-3.3,0-5.9-1-7.8-2.9c-1.9-2-2.9-4.6-2.9-7.9c0-3.2,0.9-5.9,2.6-8.1c1.9-2.3,4.4-3.4,7.5-3.4
					c3.1,0,5.4,1.2,7,3.4C271.2,54.1,271.8,56.3,271.8,59 M267.2,57.8c0-1.4-0.3-2.6-0.9-3.7c-0.8-1.3-2.1-2-3.8-2
					c-1.6,0-2.8,0.7-3.8,1.9c-0.8,1-1.3,2.3-1.4,3.7C257.3,57.8,267.2,57.8,267.2,57.8z"/>
			</g>
		</g>
	</g>
	<g>
		<path class="st1" d="M96.5,16.1h3.6c4.1,0,6.5,2.2,6.5,6.6s-2.4,6.7-6.4,6.7h-3.7C96.5,29.4,96.5,16.1,96.5,16.1z M99.9,27.5
			c2.7,0,4.2-1.5,4.2-4.8s-1.6-4.7-4.2-4.7h-1v9.5C98.8,27.5,99.9,27.5,99.9,27.5z"/>
		<path class="st1" d="M108.8,16.3c0-0.8,0.6-1.3,1.4-1.3c0.8,0,1.5,0.5,1.5,1.3c0,0.8-0.6,1.3-1.5,1.3
			C109.4,17.6,108.8,17.1,108.8,16.3z M109,19.4h2.4v10H109V19.4z"/>
		<path class="st1" d="M113.4,28.3l1.1-1.5c0.9,0.7,1.8,1.1,2.8,1.1c1.1,0,1.6-0.5,1.6-1.2c0-0.8-1.1-1.2-2.2-1.6
			c-1.3-0.5-2.8-1.2-2.8-2.9c0-1.7,1.4-3,3.7-3c1.4,0,2.5,0.6,3.3,1.2l-1.1,1.5c-0.7-0.5-1.4-0.9-2.2-0.9c-1,0-1.5,0.5-1.5,1.1
			c0,0.8,1,1.1,2.1,1.5c1.4,0.5,2.9,1.2,2.9,3c0,1.7-1.4,3.1-3.9,3.1C115.8,29.7,114.4,29.1,113.4,28.3z"/>
		<path class="st1" d="M123.2,19.4h1.9l0.2,1.1h0.1c0.8-0.7,1.9-1.3,3-1.3c2.5,0,3.9,2,3.9,5.1c0,3.4-2.1,5.4-4.3,5.4
			c-0.9,0-1.8-0.4-2.6-1.1l0.1,1.7v3.2h-2.4C123.2,33.4,123.2,19.4,123.2,19.4z M129.9,24.3c0-2-0.6-3.2-2.2-3.2
			c-0.7,0-1.4,0.4-2.2,1.1v4.7c0.7,0.6,1.4,0.8,2,0.8C128.9,27.8,129.9,26.6,129.9,24.3z"/>
		<path class="st1" d="M134.1,24.4c0-3.4,2.3-5.3,4.8-5.3c2.5,0,4.8,1.9,4.8,5.3c0,3.3-2.3,5.3-4.8,5.3
			C136.3,29.7,134.1,27.8,134.1,24.4z M141.2,24.4c0-2-0.9-3.4-2.4-3.4c-1.5,0-2.4,1.3-2.4,3.4s0.9,3.3,2.4,3.3
			C140.3,27.8,141.2,26.5,141.2,24.4z"/>
		<path class="st1" d="M145.9,19.4h1.9l0.2,1.4h0.1c0.9-0.9,1.9-1.6,3.3-1.6c2.1,0,3.1,1.5,3.1,4v6.3h-2.4v-6c0-1.6-0.5-2.3-1.6-2.3
			c-0.9,0-1.5,0.4-2.3,1.2v7h-2.4V19.4z"/>
		<path class="st1" d="M157.4,16.6l3-3.6l1.6,1.6l-3.5,3.2L157.4,16.6z M157.4,19.4h2.4v10h-2.4V19.4z"/>
		<path class="st1" d="M161.5,19.4h2.4l1.6,5.2c0.3,1,0.6,2,0.9,3h0.1c0.3-1,0.6-2,0.9-3l1.6-5.2h2.3l-3.4,10H165L161.5,19.4z"/>
		<path class="st1" d="M172.1,24.4c0-3.3,2.3-5.3,4.6-5.3c2.7,0,4.1,2,4.1,4.8c0,0.5-0.1,0.9-0.1,1.1h-6.4c0.2,1.8,1.3,2.8,3,2.8
			c0.9,0,1.6-0.3,2.3-0.7l0.8,1.5c-1,0.6-2.2,1.1-3.4,1.1C174.2,29.7,172.1,27.8,172.1,24.4z M178.8,23.5c0-1.5-0.7-2.5-2.1-2.5
			c-1.2,0-2.2,0.9-2.4,2.5H178.8z"/>
		<path class="st1" d="M183.1,26.9V15h2.4v12c0,0.6,0.3,0.8,0.5,0.8c0.1,0,0.2,0,0.4,0l0.3,1.8c-0.3,0.1-0.7,0.2-1.2,0.2
			C183.7,29.7,183.1,28.6,183.1,26.9z"/>
		<path class="st1" d="M192.7,19.4h1.9l0.2,1.4h0.1c0.9-0.9,1.9-1.6,3.3-1.6c2.1,0,3.1,1.5,3.1,4v6.3h-2.4v-6c0-1.6-0.5-2.3-1.6-2.3
			c-0.9,0-1.5,0.4-2.3,1.2v7h-2.4V19.4z"/>
		<path class="st1" d="M203.6,26.8c0-2.1,1.8-3.3,5.9-3.7c0-1.1-0.5-2-1.8-2c-1,0-1.9,0.5-2.8,1l-0.9-1.6c1.1-0.7,2.5-1.3,4.1-1.3
			c2.5,0,3.8,1.5,3.8,4.3v5.9h-1.9l-0.2-1.1h-0.1c-0.9,0.8-1.9,1.4-3.1,1.4C204.8,29.7,203.6,28.5,203.6,26.8z M209.5,26.8v-2.3
			c-2.7,0.3-3.6,1-3.6,2.1c0,0.9,0.6,1.3,1.4,1.3C208.1,27.9,208.8,27.5,209.5,26.8z"/>
	</g>
</g>
</svg>
