<?xml version="1.0" encoding="utf-8"?>
<!-- Generator: Adobe Illustrator 28.0.0, SVG Export Plug-In . SVG Version: 6.00 Build 0)  -->
<svg version="1.1" id="Camada_1" xmlns="http://www.w3.org/2000/svg" xmlns:xlink="http://www.w3.org/1999/xlink" x="0px" y="0px"
	 viewBox="0 0 298.8 92.5" style="enable-background:new 0 0 298.8 92.5;" xml:space="preserve">
<style type="text/css">
	.st0{fill:#FFFFFF;}
	.st1{fill:#08295E;}
</style>
<rect x="0" y="0" class="st0" width="298.8" height="92.5"/>
<g>
	<g>
		<path class="st1" d="M149.9,49.8c-5.2,0-9.5,4-9.5,9.5c0,5.5,4.3,9.5,9.5,9.5s9.5-4,9.5-9.5C159.5,53.8,155.2,49.8,149.9,49.8z
			 M149.9,65.1c-2.9,0-5.4-2.4-5.4-5.8c0-3.4,2.5-5.8,5.4-5.8s5.4,2.3,5.4,5.8C155.3,62.7,152.8,65.1,149.9,65.1z M129.1,49.8
			c-5.2,0-9.5,4-9.5,9.5c0,5.5,4.3,9.5,9.5,9.5s9.5-4,9.5-9.5C138.7,53.8,134.4,49.8,129.1,49.8z M129.1,65.1
			c-2.9,0-5.4-2.4-5.4-5.8c0-3.4,2.5-5.8,5.4-5.8c2.9,0,5.4,2.3,5.4,5.8C134.5,62.7,132,65.1,129.1,65.1z M104.4,52.8v4h9.6
			c-0.3,2.3-1,3.9-2.2,5.1c-1.4,1.4-3.6,3-7.4,3c-5.9,0-10.6-4.8-10.6-10.7s4.6-10.7,10.6-10.7c3.2,0,5.5,1.3,7.3,2.9l2.8-2.8
			c-2.4-2.3-5.6-4.1-10.1-4.1c-8.1,0-15,6.6-15,14.8s6.8,14.8,15,14.8c4.4,0,7.7-1.4,10.3-4.1c2.7-2.7,3.5-6.4,3.5-9.4
			c0-0.9-0.1-1.8-0.2-2.5L104.4,52.8L104.4,52.8z M205.6,55.9c-0.8-2.1-3.2-6-8.1-6c-4.9,0-9,3.8-9,9.5c0,5.3,4,9.5,9.4,9.5
			c4.4,0,6.9-2.7,7.9-4.2l-3.2-2.2c-1.1,1.6-2.6,2.6-4.7,2.6c-2.1,0-3.6-1-4.6-2.9L206,57L205.6,55.9z M192.6,59
			c-0.1-3.7,2.8-5.5,5-5.5c1.7,0,3.1,0.8,3.5,2L192.6,59z M182.3,68.3h4.2V40.3h-4.2V68.3z M175.5,52h-0.1c-0.9-1.1-2.7-2.1-5-2.1
			c-4.8,0-9.1,4.2-9.1,9.5c0,5.3,4.4,9.5,9.1,9.5c2.3,0,4.1-1,5-2.2h0.1v1.4c0,3.6-1.9,5.6-5.1,5.6c-2.6,0-4.1-1.8-4.8-3.4l-3.6,1.5
			c1,2.5,3.8,5.6,8.4,5.6c4.9,0,9-2.9,9-9.9V50.4h-4L175.5,52L175.5,52z M170.7,65.1c-2.9,0-5.3-2.4-5.3-5.7c0-3.3,2.4-5.8,5.3-5.8
			c2.8,0,5.1,2.5,5.1,5.8C175.8,62.7,173.5,65.1,170.7,65.1z M225.1,40.3h-10v27.9h4.2V57.7h5.8c4.6,0,9.2-3.3,9.2-8.7
			S229.7,40.3,225.1,40.3z M225.2,53.8h-5.9v-9.6h5.9c3.1,0,4.9,2.6,4.9,4.8C230.1,51.2,228.3,53.8,225.2,53.8z M251,49.8
			c-3,0-6.1,1.3-7.4,4.3l3.7,1.5c0.8-1.5,2.3-2,3.8-2c2.2,0,4.4,1.3,4.4,3.6v0.3c-0.8-0.4-2.4-1.1-4.4-1.1c-4,0-8.1,2.2-8.1,6.3
			c0,3.7,3.3,6.1,6.9,6.1c2.8,0,4.4-1.3,5.3-2.7h0.1v2.2h4V57.5C259.5,52.6,255.8,49.8,251,49.8z M250.5,65.1
			c-1.4,0-3.3-0.7-3.3-2.4c0-2.2,2.4-3,4.4-3c1.8,0,2.7,0.4,3.8,0.9C255.1,63.3,252.9,65.1,250.5,65.1z M274.1,50.4l-4.8,12.1h-0.1
			l-5-12.1h-4.5l7.4,16.9l-4.2,9.4h4.4l11.5-26.3C278.7,50.4,274.1,50.4,274.1,50.4z M236.6,68.3h4.2V40.3h-4.2V68.3z"/>
	</g>
	<g>
		<path class="st1" d="M93.7,18.2h3.6c4.1,0,6.5,2.2,6.5,6.6s-2.4,6.7-6.4,6.7h-3.7C93.7,31.6,93.7,18.2,93.7,18.2z M97.1,29.7
			c2.7,0,4.2-1.5,4.2-4.8s-1.6-4.7-4.2-4.7h-1v9.5H97.1z"/>
		<path class="st1" d="M106,18.5c0-0.8,0.6-1.3,1.4-1.3c0.8,0,1.5,0.5,1.5,1.3c0,0.8-0.6,1.3-1.5,1.3C106.6,19.8,106,19.2,106,18.5z
			 M106.3,21.5h2.4v10h-2.4V21.5z"/>
		<path class="st1" d="M110.6,30.4l1.1-1.5c0.9,0.7,1.8,1.1,2.8,1.1c1.1,0,1.6-0.5,1.6-1.2c0-0.8-1.1-1.2-2.2-1.6
			c-1.3-0.5-2.8-1.2-2.8-2.9c0-1.7,1.4-3,3.7-3c1.4,0,2.5,0.6,3.3,1.2l-1.1,1.5c-0.7-0.5-1.4-0.9-2.2-0.9c-1,0-1.5,0.5-1.5,1.1
			c0,0.8,1,1.1,2.1,1.5c1.4,0.5,2.9,1.2,2.9,3c0,1.7-1.4,3.1-3.9,3.1C113,31.8,111.6,31.2,110.6,30.4z"/>
		<path class="st1" d="M120.4,21.5h1.9l0.2,1.1h0.1c0.8-0.7,1.9-1.3,3-1.3c2.5,0,4,2,4,5.1c0,3.4-2.1,5.4-4.3,5.4
			c-0.9,0-1.8-0.4-2.6-1.1l0.1,1.7v3.2h-2.4V21.5z M127.2,26.4c0-2-0.7-3.2-2.2-3.2c-0.7,0-1.4,0.4-2.2,1.1V29
			c0.7,0.6,1.4,0.8,2,0.8C126.1,29.9,127.2,28.7,127.2,26.4z"/>
		<path class="st1" d="M131.3,26.6c0-3.4,2.3-5.3,4.8-5.3c2.5,0,4.8,1.9,4.8,5.3c0,3.3-2.3,5.3-4.8,5.3S131.3,29.9,131.3,26.6z
			 M138.4,26.6c0-2-0.9-3.4-2.4-3.4c-1.5,0-2.4,1.3-2.4,3.4s0.9,3.3,2.4,3.3S138.4,28.6,138.4,26.6z"/>
		<path class="st1" d="M143.2,21.5h1.9l0.2,1.4h0.1c0.9-0.9,1.9-1.6,3.3-1.6c2.1,0,3.1,1.5,3.1,4v6.3h-2.4v-6c0-1.6-0.5-2.3-1.6-2.3
			c-0.9,0-1.5,0.4-2.3,1.2v7h-2.4V21.5z"/>
		<path class="st1" d="M154.6,18.7l3-3.6l1.6,1.6l-3.5,3.2L154.6,18.7z M154.6,21.5h2.4v10h-2.4V21.5z"/>
		<path class="st1" d="M158.7,21.5h2.4l1.6,5.2c0.3,1,0.6,2,0.9,3h0.1c0.3-1,0.6-2,0.9-3l1.6-5.2h2.3l-3.4,10h-2.7L158.7,21.5z"/>
		<path class="st1" d="M169.3,26.6c0-3.3,2.3-5.3,4.6-5.3c2.7,0,4.1,2,4.1,4.8c0,0.5-0.1,0.9-0.1,1.1h-6.4c0.2,1.8,1.3,2.8,3,2.8
			c0.9,0,1.6-0.3,2.3-0.7l0.8,1.5c-1,0.6-2.2,1.1-3.4,1.1C171.5,31.8,169.3,29.9,169.3,26.6z M176,25.6c0-1.5-0.7-2.5-2.1-2.5
			c-1.2,0-2.2,0.9-2.4,2.5H176z"/>
		<path class="st1" d="M180.3,29V17.1h2.4v12c0,0.6,0.3,0.8,0.5,0.8c0.1,0,0.2,0,0.4,0l0.3,1.8c-0.3,0.1-0.7,0.2-1.2,0.2
			C180.9,31.8,180.3,30.8,180.3,29z"/>
		<path class="st1" d="M189.9,21.5h1.9l0.2,1.4h0.1c0.9-0.9,1.9-1.6,3.3-1.6c2.1,0,3.1,1.5,3.1,4v6.3h-2.4v-6c0-1.6-0.5-2.3-1.6-2.3
			c-0.9,0-1.5,0.4-2.3,1.2v7h-2.4V21.5z"/>
		<path class="st1" d="M200.8,28.9c0-2.1,1.8-3.3,5.9-3.7c0-1.1-0.5-2-1.8-2c-1,0-1.9,0.5-2.8,1l-0.9-1.6c1.1-0.7,2.5-1.3,4.1-1.3
			c2.5,0,3.8,1.5,3.8,4.3v5.9h-1.9l-0.2-1.1h-0.1c-0.9,0.8-1.9,1.4-3.1,1.4C202,31.8,200.8,30.6,200.8,28.9z M206.7,28.9v-2.3
			c-2.7,0.3-3.6,1-3.6,2.1c0,0.9,0.6,1.3,1.4,1.3C205.4,30,206,29.6,206.7,28.9z"/>
	</g>
	<g>
		<g>
			<path class="st1" d="M21,18.2c-0.6,0.7-1,1.7-1,3.1v49.3c0,1.1,0.3,2,0.7,2.7l27.4-27.7L21,18.2z"/>
		</g>
		<g>
			<path class="st1" d="M49.1,44.6l8.5-8.5L25.7,18c-1.3-0.8-2.5-0.9-3.5-0.6L49.1,44.6z"/>
		</g>
		<g>
			<path class="st1" d="M49.1,46.6L21.8,74.3c1,0.6,2.4,0.5,3.9-0.4L58,55.6L49.1,46.6z"/>
		</g>
		<g>
			<path class="st1" d="M69.2,42.7l-10.4-5.9l-8.7,8.8l9.1,9.2l10-5.7C72.3,47.4,72.3,44.5,69.2,42.7z"/>
		</g>
	</g>
</g>
</svg>
