<?xml version="1.0" encoding="utf-8"?>
<!-- Generator: Adobe Illustrator 28.0.0, SVG Export Plug-In . SVG Version: 6.00 Build 0)  -->
<svg version="1.1" id="Camada_1" xmlns="http://www.w3.org/2000/svg" xmlns:xlink="http://www.w3.org/1999/xlink" x="0px" y="0px"
	 viewBox="0 0 6553.6 8192" style="enable-background:new 0 0 6553.6 8192;" xml:space="preserve">
<style type="text/css">
	.st0{font-family:'HelveticaNeue-Bold';}
	.st1{font-size:0.5461px;}
</style>
<g>
	<path d="M5597.1,3216.2V1447.5c0-58.9-4.3-99.5-21.5-121.5c-15-19.2-46.6-28.1-103.8-28.1H2491.3c-57.2,0-88.7,8.8-103.8,28.1
		c-17.2,22-21.5,62.6-21.5,121.5v104.3l195.6,89.6c4.5-27.8,13-50.8,28.2-70.1c28.1-35.9,72-52.5,143.9-52.5h2495.9
		c71.9,0,115.7,16.5,143.9,52.5c26,33.2,32.5,77.5,32.5,137.8v1687c2.8-0.6,5.6-1.2,8.5-1.9c1-0.3,2.1-0.6,3.1-0.8
		c9.9-2.5,20.1-5.7,30-9.5c18.1-6.9,33.4-14.9,38.9-22.7c6.8-9.5,14.1-22,21.8-35.2c17.6-30,37.1-63.1,64.8-89.9
		C5580.8,3228.5,5588.9,3221.9,5597.1,3216.2L5597.1,3216.2z M2768.1,5538.9c-16,0-28.9-12.2-28.9-27.3s13-27.3,28.9-27.3h665.4
		c16,0,28.9,12.2,28.9,27.3s-13,27.3-28.9,27.3H2768.1z M3758.7,5538.9c-16,0-28.9-12.2-28.9-27.3s13-27.3,28.9-27.3h436.6
		c16,0,28.9,12.2,28.9,27.3s-13,27.3-28.9,27.3H3758.7z M2837.3,5836.7c-16,0-28.9-12.2-28.9-27.3c0-15.1,13-27.3,28.9-27.3h271
		c16,0,28.9,12.2,28.9,27.3c0,15.1-13,27.3-28.9,27.3H2837.3z M3433.5,5836.7c-16,0-28.9-12.2-28.9-27.3c0-15.1,13-27.3,28.9-27.3
		H3870c16,0,28.9,12.2,28.9,27.3c0,15.1-13,27.3-28.9,27.3H3433.5L3433.5,5836.7z M3960.4,6152.5c16,0,28.9,12.2,28.9,27.3
		s-13,27.3-28.9,27.3H3295c-16,0-28.9-12.2-28.9-27.3s13-27.3,28.9-27.3H3960.4z M2969.8,6152.5c16,0,28.9,12.2,28.9,27.3
		s-13,27.3-28.9,27.3h-164.1c-16,0-28.9-12.2-28.9-27.3s13-27.3,28.9-27.3H2969.8z M3575,6477.6c16,0,28.9,12.2,28.9,27.3
		c0,15.1-13,27.3-28.9,27.3h-665.4c-16,0-28.9-12.2-28.9-27.3c0-15.1,13-27.3,28.9-27.3H3575z M3377,2542.3l8.8,54l-57.2,8.3
		l-8.8-54L3377,2542.3z M3601.4,3201.9l-32.4-38l-45.1,34.2l32.4,38L3601.4,3201.9z M3460.3,3036.1l-45.1,34.2l-36.2-42.6l45.1-34.2
		L3460.3,3036.1z M3289.7,2835.8l-45.1,34.2l-36.2-42.6l45.1-34.2L3289.7,2835.8z M2796.7,3349l18.7-45.5l-53.9-19.8l-18.7,45.5
		L2796.7,3349z M2878.2,3150.7l-53.9-19.8l20.9-50.9l53.9,19.8L2878.2,3150.7z M2976.8,2911.2l-53.9-19.8l20.9-50.9l53.9,19.8
		L2976.8,2911.2z M2751.2,2693l-8.8-54l57.2-8.3l8.8,54L2751.2,2693z M2838.5,2399.5l45.1-34.2l36.2,42.6l-45.1,34.2L2838.5,2399.5z
		 M3331.4,1886.4l-18.7,45.5l53.9,19.8l18.7-45.5L3331.4,1886.4z M3249.9,2084.6l53.9,19.8l-20.9,50.9l-53.9-19.8L3249.9,2084.6z
		 M3151.4,2324.2l53.9,19.8l-20.9,50.9l-53.9-19.8L3151.4,2324.2z M3868.7,2470.6l-51.1,7.5l8.8,54l51.1-7.5L3868.7,2470.6
		L3868.7,2470.6z M3646.1,2503l8.8,54l-57.2,8.3l-8.8-54L3646.1,2503z M3301.2,2775.7c-13.8-7.5-18.5-24.1-10.6-37.1
		c7.9-13,25.5-17.5,39.3-10l127.7,69.6c13.8,7.5,18.5,24.1,10.6,37.1c-7.9,13-25.5,17.5-39.3,10L3301.2,2775.7z M3559.6,2916.6
		c-13.8-7.5-18.5-24.2-10.5-37.2c8-13,25.6-17.5,39.4-9.9l268.8,146.5c13.8,7.5,18.5,24.2,10.5,37.2c-8,13-25.6,17.5-39.4,9.9
		L3559.6,2916.6z M3327.5,2502.9c-13.8,7.5-31.4,3-39.3-10c-7.9-13-3.2-29.6,10.6-37.1l127.7-69.6c13.8-7.5,31.4-3,39.3,10
		c7.9,13,3.2,29.6-10.6,37.1L3327.5,2502.9z M3586.1,2362c-13.8,7.5-31.4,3-39.3-10c-7.9-13-3.2-29.6,10.6-37.1l268.8-146.5
		c13.8-7.5,31.4-3,39.3,10c7.9,13,3.2,29.6-10.6,37.1L3586.1,2362z M3090.6,2344.9c0,15.1-13,27.3-28.9,27.3
		c-16,0-28.9-12.2-28.9-27.3v-139.2c0-15.1,13-27.3,28.9-27.3c16,0,28.9,12.2,28.9,27.3V2344.9z M3090.6,2063.1
		c0,15.1-13,27.3-28.9,27.3c-16,0-28.9-12.2-28.9-27.3v-293c0-15.1,13-27.3,28.9-27.3c16,0,28.9,12.2,28.9,27.3V2063.1z
		 M2826.9,2459.6c13.8,7.5,18.5,24.1,10.6,37.1c-7.9,13-25.5,17.5-39.3,10l-127.7-69.6c-13.8-7.5-18.5-24.1-10.6-37.1
		c7.9-13,25.5-17.5,39.3-10L2826.9,2459.6z M2800.6,2732.4c13.8-7.5,31.4-3,39.3,10c7.9,13,3.2,29.6-10.6,37.1l-127.7,69.6
		c-13.8,7.5-31.4,3-39.3-10c-7.9-13-3.2-29.6,10.6-37.1L2800.6,2732.4z M3037.5,2890.5c0-15.1,13-27.3,28.9-27.3
		s28.9,12.2,28.9,27.3v139.2c0,15.1-13,27.3-28.9,27.3s-28.9-12.2-28.9-27.3V2890.5z M3037.5,3172.3c0-15.1,13-27.3,28.9-27.3
		s28.9,12.2,28.9,27.3v293c0,15.1-13,27.3-28.9,27.3s-28.9-12.2-28.9-27.3V3172.3z M5313.4,3401.2V1708.9c0-42.5-2.8-71.5-14.1-85.9
		c-9.1-11.6-30.3-17-69.7-17H2733.6c-39.5,0-60.6,5.4-69.7,17c-11.3,14.4-14.1,43.4-14.1,85.9v4940.5c0,42.5,2.8,71.5,14.1,85.9
		c9.1,11.6,30.3,17,69.7,17h1051.6c0.3-0.8,0.7-1.5,1.1-2.3l1055.4-2103.6c-4.8-0.6-9.6-1.9-14.2-3.9
		c-341.8-154.4-636.6-302.3-827.2-426.6c-173.7-113.3-266-214.7-240.7-295.8c-1.8-13.7,3.3-28,15-37.9
		c196.6-166.3,432.5-280.5,683-355.8C4736.4,3442.5,5033.2,3406.9,5313.4,3401.2L5313.4,3401.2z M3887.4,6752.3h187.2
		c0.6-1.9,1.3-3.7,2.2-5.5l1161.4-2359.4c1.1-2.3,2.5-4.5,4-6.6c-23.3-10.3-46.8-20.7-70.4-31.1c-21.9-9.6-43.7-19.1-65.4-28.6
		c-0.7,2.4-1.6,4.8-2.8,7.2L3887.4,6752.3L3887.4,6752.3z M4175.9,6752.3h1053.6c39.5,0,60.6-5.4,69.7-17
		c11.3-14.4,14.1-43.4,14.1-85.9V4852.9c-51.5-21.3-104.1-43.3-157.5-66.1c-3.6-1.5-6.8-3.4-9.7-5.6L4175.9,6752.3L4175.9,6752.3z
		 M5405.9,4890.7v1758.8c0,60.3-6.6,104.6-32.5,137.8c-28.1,35.9-72,52.5-143.9,52.5H2733.6c-71.9,0-115.7-16.5-143.9-52.5
		c-9.2-11.7-15.9-24.8-20.8-39.5L846.8,7309.3c-59.3,19.3-107.9,30.9-157.5,31.7c-51,0.8-100.5-9.8-159.7-35l-183.6-78.1
		c-41.5-17.7-66.4-37.1-82.2-65c-14.8-26.3-18.4-55.5-18.4-95.4V1088c0-51.7,5.7-85.4,27.6-113.3c22.1-28.1,54.7-43,108.2-56.6
		l0,0.1c1.2-0.3,2.5-0.6,3.8-0.8L741.6,857c39.8-12,89.4-6.3,150.4,19.7l0,0l1.1,0.5l1380.4,632.1v-61.9c0-76.6,8.1-132.6,40-173.4
		c34.1-43.5,88.3-63.6,177.9-63.6h2980.5c89.6,0,143.8,20,177.9,63.6c31.9,40.8,40,96.8,40,173.4v1740.6
		c17.7,0.7,34.7,4.8,50.2,11.9c23.3,10.7,43,28,56.7,50.7c15.7,26.1,23.2,59.1,18.3,96.6c-4.6,35.4-18.2,69.1-30.5,99.7
		c-6,14.8-11.6,28.7-14.6,38.5c-2.7,8.9,0.7,25.1,6.8,42.8c4.8,13.9,11.1,27.5,17.7,39.2c0.9,1.3,1.7,2.7,2.4,4.1
		c5.5,9.4,11.1,17.3,16.1,23.1c189.6,215.4,366.7,467.5,486,740.2c100.3,229.3,159.7,473.1,151.5,722.1c-0.4,15-8.8,27.9-21.2,35.5
		c-49.7,70.3-191.2,69-394.5,16.6c-99.6-25.6-216-63.1-344.8-109.6v1911.3c0,76.6-8.1,132.6-40,173.4
		c-34.1,43.5-88.3,63.6-177.9,63.6H2491.3c-89.6,0-143.8-20-177.9-63.6c-31.9-40.8-40-96.8-40-173.4c0-24.1,20.7-43.7,46.3-43.7
		c25.6,0,46.3,19.6,46.3,43.7c0,58.9,4.3,99.5,21.5,121.5c15,19.2,46.6,28.1,103.8,28.1h2980.5c57.2,0,88.7-8.8,103.8-28.1
		c17.2-22,21.5-62.6,21.5-121.5V4965.3C5535.6,4942.2,5471.8,4917.2,5405.9,4890.7z M4879.2,4571.7l140.8-280.6c1-2,2.2-3.9,3.5-5.7
		c-325.1-139.2-618.4-252-836.7-312.7c-192.8-53.7-318-69.7-337.8-29.6c-18,36.4,60.3,107.6,203.8,201.2
		c186.7,121.7,477,267.4,814.6,419.8C4871.8,4566,4875.7,4568.6,4879.2,4571.7L4879.2,4571.7z M5324.5,4417.6
		c-0.6,2.1-1.5,4.2-2.5,6.2L5184,4704.3c3.3,0.6,6.6,1.6,9.8,3c341.5,145.8,646.6,261.7,864.8,317.9
		c168.2,43.3,276.3,54.1,294.2,17.8c19.9-40.3-73.8-120.5-241.4-225.1C5922.6,4700,5644.4,4561.8,5324.5,4417.6L5324.5,4417.6z
		 M6352.7,4885.1c-16.6-177.3-66.7-351-139.4-517c-98.9-226.1-239.2-437.9-393.2-625.6c7.7,214.5-45.2,475.7-104.4,761.1
		c175.3,85.9,328,167.5,446.7,241.6C6240.9,4794.1,6305.3,4841,6352.7,4885.1L6352.7,4885.1z M5711.2,3605.2
		c-8.6-15.6-16.5-32.8-22.4-49.8c-11.2-32.2-16.1-66.2-7.5-94c4.8-15.8,10.6-30.1,16.8-45.3c10.4-25.8,21.9-54.2,25.1-79.2
		c2.3-18-0.5-32.6-6.8-43.1c-4.2-7-10-12.2-16.5-15.2c-6.6-3-14.3-4.1-22.4-2.8c-12,1.9-25.2,8.6-38.2,21.1
		c-19.2,18.6-35.5,46.4-50.3,71.4c-8.7,14.8-16.9,28.8-25.8,41.4c-17,24-47.7,42.4-81.2,55.1c-12,4.6-24.6,8.5-37.2,11.7
		c-106.3,53.5-217,143.7-331.2,255.6c-106.9,104.8-216.6,228.5-328.6,359c134.6,54,277.6,114.6,425.4,179.5
		c147.9,65,289.2,129.2,419.7,191.7C5700.4,4122.4,5759.2,3819.9,5711.2,3605.2L5711.2,3605.2z M5256.7,3489.9
		c-254.7,9.1-520.9,44.1-771.4,119.5c-181.4,54.5-354.4,130.2-508.7,232.5c66.4,5.8,145.8,22.1,236.1,47.2
		c136.6,38,301.1,95.6,483.6,166.9c119.1-139.4,236-272,350.7-384.3C5117.7,3602.3,5187.6,3540.7,5256.7,3489.9z M2557.3,6659.5
		c0-3.3-0.1-6.6-0.1-10V1736.2L854,956.2l0,0c-32.2-13.7-56.9-19.1-74.9-17.1l-6.8,1.1c-7.9,1.9-14.3,5.4-19.3,10.5
		c-22.7,23.2-32.2,73.2-32.2,142.9l5.5,5975.9c0,19.8,3.2,37.9,9,53.8c9.2,25.2,25.4,45.4,46.3,59.3c21,13.9,47,21.6,75.8,21.6
		c18.9,0,39-3.2,59.8-10l0,0L2557.3,6659.5L2557.3,6659.5z M723.8,7250.8c-34.2-24-60.5-57.7-75.7-99.1c-9.1-24.9-14.1-52.4-14-82.1
		l-5.5-5975.9c0-51.2,5.2-95.6,16.8-131.9l-240.7,40.7c-32.4,8.3-50.4,15-57.5,24c-7.3,9.3-9.2,28.5-9.2,61.5v5979.5
		c0,26.3,1.5,44,7.5,54.8c5.1,9.1,16.8,16.9,38.4,26.1l183.6,78.1c46.4,19.7,83.6,28,120.3,27.5
		C699.6,7253.7,711.5,7252.7,723.8,7250.8L723.8,7250.8z"/>
</g>
<text transform="matrix(1 0 0 1 0 6555.2383)" class="st0 st1">Created by Olena Panasovska</text>
<text transform="matrix(1 0 0 1 0 6555.7842)" class="st0 st1">from the Noun Project</text>
</svg>
