<?xml version="1.0" encoding="utf-8"?>
<!-- Generator: Adobe Illustrator 28.0.0, SVG Export Plug-In . SVG Version: 6.00 Build 0)  -->
<svg version="1.1" id="Camada_1" xmlns:serif="http://www.serif.com/"
	 xmlns="http://www.w3.org/2000/svg" xmlns:xlink="http://www.w3.org/1999/xlink" x="0px" y="0px" viewBox="0 0 100 125"
	 style="enable-background:new 0 0 100 125;" xml:space="preserve">
<style type="text/css">
	.st0{fill:none;}
	.st1{fill-rule:evenodd;clip-rule:evenodd;}
</style>
<g transform="matrix(1,0,0,1,-675,-112.5)">
	<g transform="matrix(1,0,0,1,675,112.5)" serif:id="Page 16">
		<rect x="0" y="10.7" class="st0" width="100" height="100"/>
		<g transform="matrix(1,0,0,1,-675,-112.306)">
			<path class="st1" d="M680.7,161.3c-0.1,0-0.1,0-0.1,0.1c0,0-0.1,0-0.1,0.1c-0.1,0.1-0.2,0.1-0.3,0.2c-0.1,0.1-0.1,0.2-0.2,0.3
				c0,0,0,0.1,0,0.1l0,0c0,0.1,0,0.1,0,0.1v41.1c0,0.6,0.5,1,1,1h88c0.5,0,1-0.4,1-1v-41.1c0-0.6-0.5-1-1-1h-8.6L759,151
				c0-0.3-0.2-0.5-0.4-0.7c-0.2-0.2-0.5-0.2-0.7-0.2l-9.5,1.4l-2.7-9.2c-0.1-0.3-0.2-0.5-0.5-0.6c-0.2-0.1-0.5-0.1-0.8-0.1
				L680.7,161.3z M768,163.2v39.1h-86v-39.1H768z M764.5,175.2c0-0.6-0.5-1-1-1c-3.6,0-6.6-2.9-6.6-6.6c0-0.6-0.4-1-1-1h-61.8
				c-0.6,0-1,0.4-1,1c0,3.6-2.9,6.6-6.6,6.6c-0.5,0-1,0.4-1,1v15.1c0,0.6,0.5,1,1,1c3.6,0,6.6,2.9,6.6,6.6c0,0.6,0.4,1,1,1h61.8
				c0.6,0,1-0.4,1-1c0-3.6,2.9-6.6,6.6-6.6c0.5,0,1-0.4,1-1V175.2z M762.5,176.2v13.2c-3.9,0.5-7,3.6-7.5,7.5h-60
				c-0.5-3.9-3.6-7-7.5-7.5v-13.2c3.9-0.5,7-3.6,7.5-7.5h60C755.4,172.6,758.5,175.7,762.5,176.2z M725,171
				c-6.4,0-11.6,5.2-11.6,11.6s5.2,11.6,11.6,11.6s11.6-5.2,11.6-11.6S731.4,171,725,171z M725,173c5.3,0,9.6,4.3,9.6,9.6
				c0,5.3-4.3,9.6-9.6,9.6c-5.3,0-9.6-4.3-9.6-9.6S719.7,173,725,173z M703.2,183.7h6.5c0.6,0,1-0.4,1-1s-0.4-1-1-1h-6.5
				c-0.5,0-1,0.4-1,1S702.6,183.7,703.2,183.7z M740.3,183.7h6.5c0.6,0,1-0.4,1-1s-0.4-1-1-1h-6.5c-0.5,0-1,0.4-1,1
				S739.7,183.7,740.3,183.7z M695,161.2h63.3l-1.2-8.9L695,161.2z M693.6,159.4l52.8-7.6l-2.3-7.9L693.6,159.4z"/>
		</g>
	</g>
</g>
</svg>
